<?xml version="1.0" encoding="iso-8859-1"?>
<!DOCTYPE svg PUBLIC "-//W3C//DTD SVG 1.1//EN" "http://www.w3.org/Graphics/SVG/1.1/DTD/svg11.dtd">
<svg 
 version="1.1" xmlns="http://www.w3.org/2000/svg" xmlns:xlink="http://www.w3.org/1999/xlink" x="0px" y="0px" width="512px"
	 height="512px" viewBox="0 0 512 512" enable-background="new 0 0 512 512" xml:space="preserve"
><g fill="#ffffff" id="3e91140ac1bfb9903b91c1b0ca02ae4f"><g></g><path d="M481.983,419.479L327.539,257.852l-3.594-68.244l-28.732-28.732L151.545,304.541l28.733,28.735l68.241,3.59
			l161.624,154.448c23.808,23.8,59.187,27.017,79.02,7.18C509,478.662,505.782,443.283,481.983,419.479z M460.432,469.763
			c-7.938,7.938-20.799,7.934-28.731,0c-7.934-7.937-7.938-20.798,0-28.731c7.933-7.941,20.794-7.941,28.735-0.004
			C468.368,448.965,468.368,461.826,460.432,469.763z M160.682,0.5c-5.984,1.949-12.021,5.227-18.062,11.267
			c-25.753,25.753-5.319,46.185-31.072,71.938s-46.187,5.319-71.938,31.072c-25.274,25.272-6.186,45.431-29.779,70.503
			L144.361,297.36l143.668-143.67L160.682,0.5z M142.614,258.881l-64.092-53.398c4.982-16.56-1.537-32.304,15.908-49.749
			c23.549-23.549,43.983-3.113,67.532-26.663c20.598-20.598,7.537-38.818,19.713-58.819l67.895,81.673L142.614,258.881z"></path></g></svg>