<?xml version="1.0" encoding="iso-8859-1"?>
<!DOCTYPE svg PUBLIC "-//W3C//DTD SVG 1.1//EN" "http://www.w3.org/Graphics/SVG/1.1/DTD/svg11.dtd">
<svg 
 version="1.1" xmlns="http://www.w3.org/2000/svg" xmlns:xlink="http://www.w3.org/1999/xlink" x="0px" y="0px" width="512px"
	 height="512px" viewBox="0 0 512 512" enable-background="new 0 0 512 512" xml:space="preserve"
><g fill="#ffffff" id="3e91140ac1bfb9903b91c1b0ca022925"><g></g><path display="inline" d="M500.863,402.108L358.004,275.981c-8.904-7.867-21.295-10.25-32.576-7.414L180.435,123.574l47.656-47.658
		c8.427-8.425,8.427-22.212,0-30.64L208.35,25.534c-8.428-8.427-24.669-12.553-36.097-9.174l-53.845,15.928
		c-11.428,3.379-27.669,13.041-36.097,21.466l-75.49,75.49c-8.428,8.428-8.428,22.215,0,30.642l53.329,53.329
		c8.428,8.428,22.215,8.428,30.642,0l47.656-47.656l146.261,146.256c-1.739,10.432,0.792,21.446,7.816,29.605L417.02,485.986
		c12.061,14.007,32.906,14.498,46.313,1.092l38.349-38.349C515.087,435.323,514.719,414.343,500.863,402.108z M451.572,474.577
		c-3.119,3.128-7.093,4.791-11.177,4.697c-4.07-0.093-7.871-1.946-10.681-5.209L306.131,330.563l10.85-10.847l123.58,143.504
		c2.814,3.267,6.606,5.111,10.682,5.213c4.083,0.094,8.053-1.574,11.167-4.697L451.572,474.577z"></path></g></svg>