<?xml version="1.0" encoding="iso-8859-1"?>
<!DOCTYPE svg PUBLIC "-//W3C//DTD SVG 1.1//EN" "http://www.w3.org/Graphics/SVG/1.1/DTD/svg11.dtd">
<svg 
 version="1.1" xmlns="http://www.w3.org/2000/svg" xmlns:xlink="http://www.w3.org/1999/xlink" x="0px" y="0px" width="512px"
	 height="512px" viewBox="0 0 512 512" style="enable-background:new 0 0 512 512;" xml:space="preserve"
><g fill="#ffffff" id="de95281e9f52527e65bb740c59016b67"><g></g><path style="display: inline; " d="M298.583,43.083c0,23.521-19.063,42.583-42.583,42.583s-42.583-19.063-42.583-42.583
		C213.417,19.563,232.479,0.5,256,0.5S298.583,19.563,298.583,43.083z M256,439.108c-16.435,0-29.809,13.374-29.809,29.809
		s13.374,29.808,29.809,29.808s29.809-13.373,29.809-29.808S272.435,439.108,256,439.108 M256,426.333
		c23.521,0,42.583,19.063,42.583,42.584S279.521,511.5,256,511.5s-42.583-19.063-42.583-42.583S232.479,426.333,256,426.333
		L256,426.333z M105.445,75.636c-7.959,0-15.445,3.103-21.076,8.733c-5.631,5.631-8.733,13.116-8.733,21.076
		c0,7.963,3.102,15.449,8.729,21.08c5.63,5.626,13.12,8.729,21.08,8.729c7.959,0,15.449-3.102,21.08-8.733
		c11.623-11.619,11.623-30.528,0-42.151C120.889,78.739,113.404,75.636,105.445,75.636 M105.445,62.861
		c10.895,0,21.799,4.159,30.112,12.476c16.63,16.63,16.63,43.59,0,60.22c-8.313,8.313-19.217,12.471-30.112,12.471
		c-10.896,0-21.799-4.158-30.112-12.471c-16.63-16.63-16.63-43.594,0-60.22C83.646,67.02,94.549,62.861,105.445,62.861
		L105.445,62.861z M406.556,376.747c-7.964,0-15.449,3.103-21.08,8.729c-5.626,5.631-8.729,13.12-8.729,21.08
		c0,7.959,3.098,15.444,8.729,21.075c5.635,5.631,13.12,8.732,21.08,8.732c7.959,0,15.444-3.102,21.075-8.732
		s8.732-13.116,8.732-21.075c0-7.964-3.102-15.449-8.732-21.076C422,379.85,414.515,376.747,406.556,376.747 M406.556,363.972
		c10.896,0,21.79,4.159,30.107,12.472c16.634,16.63,16.634,43.594,0,60.22c-8.313,8.317-19.212,12.476-30.107,12.476
		s-21.795-4.158-30.112-12.476c-16.63-16.626-16.63-43.59,0-60.22C384.756,368.131,395.656,363.972,406.556,363.972L406.556,363.972
		z M43.083,226.192c-16.435,0-29.809,13.374-29.809,29.808s13.374,29.809,29.809,29.809c16.434,0,29.808-13.374,29.808-29.809
		S59.518,226.192,43.083,226.192 M43.083,213.417c23.521,0,42.583,19.063,42.583,42.583s-19.063,42.583-42.583,42.583
		C19.563,298.583,0.5,279.521,0.5,256S19.563,213.417,43.083,213.417L43.083,213.417z M426.333,256
		c0,23.521,19.063,42.583,42.584,42.583S511.5,279.521,511.5,256s-19.063-42.583-42.583-42.583S426.333,232.479,426.333,256z
		 M105.445,376.747c-7.959,0-15.445,3.103-21.076,8.732c-5.631,5.627-8.733,13.112-8.733,21.076c0,7.959,3.102,15.444,8.733,21.075
		s13.116,8.732,21.076,8.732c7.959,0,15.444-3.102,21.075-8.732c5.635-5.631,8.733-13.116,8.733-21.075
		c0-7.964-3.098-15.449-8.729-21.076C120.894,379.85,113.404,376.747,105.445,376.747 M105.445,363.972
		c10.895,0,21.794,4.159,30.112,12.472c16.63,16.63,16.63,43.59,0,60.22c-8.317,8.317-19.217,12.476-30.112,12.476
		c-10.896,0-21.791-4.158-30.108-12.476c-16.634-16.63-16.634-43.59,0-60.22C83.654,368.131,94.549,363.972,105.445,363.972
		L105.445,363.972z M376.443,135.557c16.63,16.63,43.594,16.63,60.22,0c16.634-16.63,16.634-43.59,0-60.22
		c-16.626-16.634-43.59-16.634-60.22,0C359.813,91.967,359.813,118.927,376.443,135.557z"></path></g></svg>