<?xml version="1.0" encoding="iso-8859-1"?>
<!DOCTYPE svg PUBLIC "-//W3C//DTD SVG 1.1//EN" "http://www.w3.org/Graphics/SVG/1.1/DTD/svg11.dtd">
<svg 
 version="1.1" xmlns="http://www.w3.org/2000/svg" xmlns:xlink="http://www.w3.org/1999/xlink" x="0px" y="0px" width="512px"
	 height="512px" viewBox="0 0 512 512" style="enable-background:new 0 0 512 512;" xml:space="preserve"
><g fill="#ffffff" id="de95281e9f52527e65bb740c5901906e"><g></g><path style="display: inline; " d="M298.583,43.083c0,23.521-19.063,42.583-42.583,42.583s-42.583-19.063-42.583-42.583
		S232.479,0.5,256,0.5S298.583,19.563,298.583,43.083z M256,426.333c-23.521,0-42.583,19.063-42.583,42.584S232.479,511.5,256,511.5
		s42.583-19.063,42.583-42.583S279.521,426.333,256,426.333z M105.445,75.636c-7.959,0-15.445,3.103-21.076,8.733
		c-5.63,5.631-8.733,13.116-8.733,21.076c0,7.963,3.103,15.449,8.729,21.08c5.63,5.626,13.12,8.729,21.08,8.729
		s15.449-3.102,21.08-8.733c11.623-11.619,11.623-30.528,0-42.151C120.89,78.739,113.404,75.636,105.445,75.636 M105.445,62.861
		c10.895,0,21.799,4.159,30.112,12.476c16.63,16.63,16.63,43.59,0,60.22c-8.313,8.313-19.217,12.471-30.112,12.471
		c-10.896,0-21.799-4.158-30.112-12.471c-16.63-16.63-16.63-43.594,0-60.22C83.646,67.02,94.549,62.861,105.445,62.861
		L105.445,62.861z M376.443,376.443c-16.63,16.63-16.63,43.594,0,60.22c16.63,16.634,43.594,16.634,60.22,0
		c16.634-16.626,16.634-43.59,0-60.22C420.033,359.813,393.073,359.813,376.443,376.443z M0.5,256
		c0,23.521,19.063,42.583,42.583,42.583c23.521,0,42.583-19.063,42.583-42.583s-19.063-42.583-42.583-42.583
		C19.563,213.417,0.5,232.479,0.5,256z M426.333,256c0,23.521,19.063,42.583,42.584,42.583S511.5,279.521,511.5,256
		s-19.063-42.583-42.583-42.583S426.333,232.479,426.333,256z M75.337,436.663c16.63,16.634,43.59,16.634,60.22,0
		c16.63-16.63,16.63-43.59,0-60.22s-43.59-16.63-60.22,0C58.703,393.073,58.703,420.033,75.337,436.663z M376.443,135.557
		c16.63,16.63,43.594,16.63,60.22,0c16.634-16.63,16.634-43.59,0-60.22c-16.626-16.634-43.59-16.634-60.22,0
		C359.813,91.967,359.813,118.927,376.443,135.557z"></path></g></svg>